HIERARCHY
ROOT hip
{
  OFFSET 0 90.174 2.4664
  CHANNELS 6 Xposition Yposition Zposition Zrotation Xrotation Yrotation
  JOINT abdomen
  {
    OFFSET 0 -1.186 -1.5018
    CHANNELS 6 Xposition Yposition Zposition Zrotation Xrotation Yrotation
    JOINT abdomen2
    {
      OFFSET 0 9.964 0.2134
      CHANNELS 6 Xposition Yposition Zposition Zrotation Xrotation Yrotation
      JOINT chest
      {
        OFFSET 0 13.134 -3.2573
        CHANNELS 6 Xposition Yposition Zposition Zrotation Xrotation Yrotation
        JOINT neck
        {
          OFFSET 0 20.686 -1.6905
          CHANNELS 6 Xposition Yposition Zposition Zrotation Xrotation Yrotation
          JOINT head
          {
            OFFSET 0 7.238 -0.1237
            CHANNELS 6 Xposition Yposition Zposition Zrotation Xrotation Yrotation
            End Site
            {
              OFFSET 0 0 0
            }
          }
        }
        JOINT lCollar
        {
          OFFSET 1.7069 20.075 5.0056
          CHANNELS 6 Xposition Yposition Zposition Zrotation Xrotation Yrotation
          JOINT lShldr
          {
            OFFSET 13.6458 -0.047 -4.849
            CHANNELS 6 Xposition Yposition Zposition Zrotation Xrotation Yrotation
            JOINT lForeArm
            {
              OFFSET 28.3255 -0.9759 2.2888
              CHANNELS 6 Xposition Yposition Zposition Zrotation Xrotation Yrotation
              JOINT lHand
              {
                OFFSET 22.1583 -0.53 10.8316
                CHANNELS 6 Xposition Yposition Zposition Zrotation Xrotation Yrotation
                JOINT lThumb1
                {
                  OFFSET 0.786 0.112 2.5817
                  CHANNELS 6 Xposition Yposition Zposition Zrotation Xrotation Yrotation
                  JOINT lThumb2
                  {
                    OFFSET 0.3601 -0.878 4.2331
                    CHANNELS 6 Xposition Yposition Zposition Zrotation Xrotation Yrotation
                    JOINT lThumb2_End
                    {
                      OFFSET 1.8127 -1.216 2.2227
                      CHANNELS 6 Xposition Yposition Zposition Zrotation Xrotation Yrotation
                      End Site
                      {
                        OFFSET 0.0181 -0.0122 0.0222
                      }
                    }
                  }
                }
                JOINT lCarpal1
                {
                  OFFSET 0.9571 1.114 1.7695
                  CHANNELS 6 Xposition Yposition Zposition Zrotation Xrotation Yrotation
                  JOINT lIndex1
                  {
                    OFFSET 4.1246 0.487 4.1451
                    CHANNELS 6 Xposition Yposition Zposition Zrotation Xrotation Yrotation
                    JOINT lIndex2
                    {
                      OFFSET 3.4052 -1.454 2.7682
                      CHANNELS 6 Xposition Yposition Zposition Zrotation Xrotation Yrotation
                      JOINT lIndex2_End
                      {
                        OFFSET 1.4531 -1.795 1.2713
                        CHANNELS 6 Xposition Yposition Zposition Zrotation Xrotation Yrotation
                        End Site
                        {
                          OFFSET 0.0145 -0.0179 0.0127
                        }
                      }
                    }
                  }
                  JOINT lMid1
                  {
                    OFFSET 5.6954 0.21 2.1184
                    CHANNELS 6 Xposition Yposition Zposition Zrotation Xrotation Yrotation
                    JOINT lMid2
                    {
                      OFFSET 3.9766 -1.54 2.3863
                      CHANNELS 6 Xposition Yposition Zposition Zrotation Xrotation Yrotation
                      JOINT lMid2_End
                      {
                        OFFSET 1.4042 -1.926 1.125
                        CHANNELS 6 Xposition Yposition Zposition Zrotation Xrotation Yrotation
                        End Site
                        {
                          OFFSET 0.014 -0.0193 0.0113
                        }
                      }
                    }
                  }
                }
                JOINT lCarpal2
                {
                  OFFSET 2.0956 0.66 -0.3894
                  CHANNELS 6 Xposition Yposition Zposition Zrotation Xrotation Yrotation
                  JOINT lRing1
                  {
                    OFFSET 5.0395 -0.09 2.4971
                    CHANNELS 6 Xposition Yposition Zposition Zrotation Xrotation Yrotation
                    JOINT lRing2
                    {
                      OFFSET 3.7921 -1.552 1.4806
                      CHANNELS 6 Xposition Yposition Zposition Zrotation Xrotation Yrotation
                      JOINT lRing2_End
                      {
                        OFFSET 1.4655 -1.808 0.9609
                        CHANNELS 6 Xposition Yposition Zposition Zrotation Xrotation Yrotation
                        End Site
                        {
                          OFFSET 0.0147 -0.0181 0.0096
                        }
                      }
                    }
                  }
                  JOINT lPinky1
                  {
                    OFFSET 4.9141 -1.269 0.3591
                    CHANNELS 6 Xposition Yposition Zposition Zrotation Xrotation Yrotation
                    JOINT lPinky2
                    {
                      OFFSET 3.1477 -1.685 0.8462
                      CHANNELS 6 Xposition Yposition Zposition Zrotation Xrotation Yrotation
                      JOINT lPinky2_End
                      {
                        OFFSET 0.8055 -1.585 0.7955
                        CHANNELS 6 Xposition Yposition Zposition Zrotation Xrotation Yrotation
                        End Site
                        {
                          OFFSET 0.0081 -0.0158 0.008
                        }
                      }
                    }
                  }
                }
              }
            }
          }
        }
        JOINT rCollar
        {
          OFFSET -1.7069 20.075 5.0056
          CHANNELS 6 Xposition Yposition Zposition Zrotation Xrotation Yrotation
          JOINT rShldr
          {
            OFFSET -13.6458 -0.047 -4.849
            CHANNELS 6 Xposition Yposition Zposition Zrotation Xrotation Yrotation
            JOINT rForeArm
            {
              OFFSET -28.3255 -0.9759 2.2888
              CHANNELS 6 Xposition Yposition Zposition Zrotation Xrotation Yrotation
              JOINT rHand
              {
                OFFSET -22.1583 -0.53 10.8316
                CHANNELS 6 Xposition Yposition Zposition Zrotation Xrotation Yrotation
                JOINT rThumb1
                {
                  OFFSET -0.786 0.112 2.5817
                  CHANNELS 6 Xposition Yposition Zposition Zrotation Xrotation Yrotation
                  JOINT rThumb2
                  {
                    OFFSET -0.3601 -0.878 4.2331
                    CHANNELS 6 Xposition Yposition Zposition Zrotation Xrotation Yrotation
                    JOINT rThumb2_End
                    {
                      OFFSET -1.8127 -1.216 2.2227
                      CHANNELS 6 Xposition Yposition Zposition Zrotation Xrotation Yrotation
                      End Site
                      {
                        OFFSET -0.0181 -0.0122 0.0222
                      }
                    }
                  }
                }
                JOINT rCarpal1
                {
                  OFFSET -0.9571 1.114 1.7695
                  CHANNELS 6 Xposition Yposition Zposition Zrotation Xrotation Yrotation
                  JOINT rIndex1
                  {
                    OFFSET -4.1246 0.487 4.1451
                    CHANNELS 6 Xposition Yposition Zposition Zrotation Xrotation Yrotation
                    JOINT rIndex2
                    {
                      OFFSET -3.4052 -1.454 2.7682
                      CHANNELS 6 Xposition Yposition Zposition Zrotation Xrotation Yrotation
                      JOINT rIndex2_End
                      {
                        OFFSET -1.4531 -1.795 1.2713
                        CHANNELS 6 Xposition Yposition Zposition Zrotation Xrotation Yrotation
                        End Site
                        {
                          OFFSET -0.0145 -0.018 0.0127
                        }
                      }
                    }
                  }
                  JOINT rMid1
                  {
                    OFFSET -5.6954 0.21 2.1184
                    CHANNELS 6 Xposition Yposition Zposition Zrotation Xrotation Yrotation
                    JOINT rMid2
                    {
                      OFFSET -3.9766 -1.54 2.3863
                      CHANNELS 6 Xposition Yposition Zposition Zrotation Xrotation Yrotation
                      JOINT rMid2_End
                      {
                        OFFSET -1.4042 -1.926 1.125
                        CHANNELS 6 Xposition Yposition Zposition Zrotation Xrotation Yrotation
                        End Site
                        {
                          OFFSET -0.014 -0.0193 0.0113
                        }
                      }
                    }
                  }
                }
                JOINT rCarpal2
                {
                  OFFSET -2.0956 0.66 -0.3894
                  CHANNELS 6 Xposition Yposition Zposition Zrotation Xrotation Yrotation
                  JOINT rRing1
                  {
                    OFFSET -5.0395 -0.09 2.4971
                    CHANNELS 6 Xposition Yposition Zposition Zrotation Xrotation Yrotation
                    JOINT rRing2
                    {
                      OFFSET -3.7921 -1.552 1.4806
                      CHANNELS 6 Xposition Yposition Zposition Zrotation Xrotation Yrotation
                      JOINT rRing2_End
                      {
                        OFFSET -1.4655 -1.808 0.9609
                        CHANNELS 6 Xposition Yposition Zposition Zrotation Xrotation Yrotation
                        End Site
                        {
                          OFFSET -0.0147 -0.0181 0.0096
                        }
                      }
                    }
                  }
                  JOINT rPinky1
                  {
                    OFFSET -4.9141 -1.269 0.3592
                    CHANNELS 6 Xposition Yposition Zposition Zrotation Xrotation Yrotation
                    JOINT rPinky2
                    {
                      OFFSET -3.1477 -1.685 0.8462
                      CHANNELS 6 Xposition Yposition Zposition Zrotation Xrotation Yrotation
                      JOINT rPinky2_End
                      {
                        OFFSET -0.8055 -1.585 0.7955
                        CHANNELS 6 Xposition Yposition Zposition Zrotation Xrotation Yrotation
                        End Site
                        {
                          OFFSET -0.0081 -0.0158 0.008
                        }
                      }
                    }
                  }
                }
              }
            }
          }
        }
      }
    }
  }
  JOINT lThigh
  {
    OFFSET 8.367 -8.2066 0.5982
    CHANNELS 6 Xposition Yposition Zposition Zrotation Xrotation Yrotation
    JOINT lShin
    {
      OFFSET 2.1923 -43.463 -0.4932
      CHANNELS 6 Xposition Yposition Zposition Zrotation Xrotation Yrotation
      JOINT lFoot
      {
        OFFSET 0.7333 -45.8593 -2.6451
        CHANNELS 6 Xposition Yposition Zposition Zrotation Xrotation Yrotation
        End Site
        {
          OFFSET 2.6618 -4.2699 12.3931
        }
      }
    }
  }
  JOINT rThigh
  {
    OFFSET -8.367 -8.2066 0.5982
    CHANNELS 6 Xposition Yposition Zposition Zrotation Xrotation Yrotation
    JOINT rShin
    {
      OFFSET -2.1923 -43.463 -0.4931
      CHANNELS 6 Xposition Yposition Zposition Zrotation Xrotation Yrotation
      JOINT rFoot
      {
        OFFSET -0.7333 -45.8593 -2.6451
        CHANNELS 6 Xposition Yposition Zposition Zrotation Xrotation Yrotation
        End Site
        {
          OFFSET -2.6618 -4.2699 12.3931
        }
      }
    }
  }
}
MOTION
Frames:	4
Frame Time:	0.0333333
42.3106 6.86298 -3.60974 -0 -25.0011 -0 0 -1.186 -1.5018 -0.0192041 -1.04719 -0.128893 0 9.964 0.2134 -0.0407751 -2.0944 -0.258201 0 13.134 -3.2573 -0.0407751 -2.0944 -0.258201 -7.10543e-015 20.686 -1.6905 10.6444 19.9453 9.32873 7.10543e-015 7.238 -0.1237 -1.67891e-006 12.3713 -6.43628e-007 1.7069 20.075 5.0056 -11.7793 6.81654 -3.05637 13.6458 -0.047 -4.849 -64.2946 -11.8676 -36.3322 28.3255 -0.9759 2.2888 18.3094 29.6661 -5.20004 22.1583 -0.53 10.8316 -49.5816 27.4362 10.0955 0.786 0.112 2.5817 3.18055e-015 0 1.59028e-015 0.3601 -0.878 4.2331 -6.36111e-015 -9.54166e-015 -3.18055e-015 1.8127 -1.216 2.2227 -3.18055e-015 -1.27222e-014 -3.18055e-015 0.9571 1.114 1.7695 3.18055e-015 0 1.59028e-015 4.1246 0.487 4.1451 3.18055e-015 6.36111e-015 1.59028e-014 3.4052 -1.454 2.7682 3.18055e-015 0 -1.59028e-015 1.4531 -1.795 1.2713 6.36111e-015 -3.18055e-015 -1.59028e-015 5.6954 0.21 2.1184 3.18055e-015 6.36111e-015 1.59028e-014 3.9766 -1.54 2.3863 3.18055e-015 0 -1.59028e-015 1.4042 -1.926 1.125 6.36111e-015 -3.18055e-015 -1.59028e-015 2.0956 0.66 -0.3894 3.18055e-015 0 1.59028e-015 5.0395 -0.09 2.4971 3.18055e-015 6.36111e-015 1.59028e-014 3.7921 -1.552 1.4806 3.18055e-015 0 -1.59028e-015 1.4655 -1.808 0.9609 6.36111e-015 -3.18055e-015 -1.59028e-015 4.9141 -1.269 0.3591 3.18055e-015 6.36111e-015 1.59028e-014 3.1477 -1.685 0.8462 3.18055e-015 0 -1.59028e-015 0.8055 -1.585 0.7955 6.36111e-015 -3.18055e-015 -1.59028e-015 -1.7069 20.075 5.0056 11.9313 6.69054 3.40853 -13.6458 -0.047 -4.849 64.0655 -11.9984 36.7392 -28.3255 -0.9759 2.2888 -20.2778 29.3876 5.38101 -22.1583 -0.53 10.8316 49.6798 28.0228 -9.93552 -0.786 0.112 2.5817 -1.27222e-014 3.18055e-015 -0 -0.3601 -0.878 4.2331 -3.18055e-015 -6.36111e-015 -3.18055e-015 -1.8127 -1.216 2.2227 9.06459e-007 1.17641e-006 -8.16993e-007 -0.9571 1.114 1.7695 -1.27222e-014 3.18055e-015 3.18055e-015 -4.1246 0.487 4.1451 -6.36111e-015 0 3.18055e-015 -3.4052 -1.454 2.7682 -9.54166e-015 6.36111e-015 -0 -1.4531 -1.795 1.2713 9.06459e-007 1.17641e-006 -8.16993e-007 -5.6954 0.21 2.1184 -6.36111e-015 0 3.18055e-015 -3.9766 -1.54 2.3863 -9.54166e-015 6.36111e-015 -0 -1.4042 -1.926 1.125 9.06459e-007 1.17641e-006 -8.16993e-007 -2.0956 0.66 -0.3894 -1.27222e-014 3.18055e-015 3.18055e-015 -5.0395 -0.09 2.4971 -6.36111e-015 0 3.18055e-015 -3.7921 -1.552 1.4806 -9.54166e-015 6.36111e-015 -0 -1.4655 -1.808 0.9609 9.06459e-007 1.17641e-006 -8.16993e-007 -4.9141 -1.269 0.3592 -6.36111e-015 0 3.18055e-015 -3.1477 -1.685 0.8462 -9.54166e-015 6.36111e-015 -0 -0.8055 -1.585 0.7955 9.06459e-007 1.17641e-006 -8.16993e-007 8.367 -8.2066 0.5982 57.0526 -50.6972 126.1 2.1923 -43.463 -0.4932 -1.3835 46.8995 2.22988 0.7333 -45.8593 -2.6451 4.70327 21.0654 7.06825 -8.367 -8.2066 0.5982 -57.0646 -50.6866 -126.132 -2.1923 -43.463 -0.4931 1.3482 46.8902 -2.22598 -0.7333 -45.8593 -2.6451 -4.70766 21.059 -7.06006 
42.3106 6.86298 -3.57617 -0 -25.0011 -0 0 -1.186 -1.5018 -0.0188904 -1.11809 -0.128968 -7.10543e-015 9.964 0.2134 -0.0403099 -2.23608 -0.258377 -7.10543e-015 13.134 -3.2573 -0.0403098 -2.23608 -0.258377 -7.10543e-015 20.686 -1.6905 10.6081 19.4031 9.43674 0 7.238 -0.1237 3.495e-006 11.8298 1.46587e-006 1.7069 20.075 5.0056 -11.843 7.08327 -2.83105 13.6458 -0.047 -4.849 -64.3586 -11.7873 -36.3072 28.3255 -0.9759 2.2888 18.3915 29.6198 -5.34061 22.1583 -0.53 10.8316 -49.6762 27.5009 10.2675 0.786 0.112 2.5817 -9.21426e-007 1.15165e-006 8.29852e-007 0.3601 -0.878 4.2331 -9.54166e-015 3.18055e-015 -1.59028e-015 1.8127 -1.216 2.2227 -9.21426e-007 1.15165e-006 8.29852e-007 0.9571 1.114 1.7695 -0 -9.54166e-015 -0 4.1246 0.487 4.1451 -9.21426e-007 1.15165e-006 8.29852e-007 3.4052 -1.454 2.7682 -1.59028e-014 -3.18055e-015 -9.54166e-015 1.4531 -1.795 1.2713 -9.21426e-007 1.15165e-006 8.29852e-007 5.6954 0.21 2.1184 -9.21426e-007 1.15165e-006 8.29852e-007 3.9766 -1.54 2.3863 -1.59028e-014 -3.18055e-015 -9.54166e-015 1.4042 -1.926 1.125 -9.21426e-007 1.15165e-006 8.29852e-007 2.0956 0.66 -0.3894 -0 -9.54166e-015 -0 5.0395 -0.09 2.4971 -9.21426e-007 1.15165e-006 8.29852e-007 3.7921 -1.552 1.4806 -1.59028e-014 -3.18055e-015 -9.54166e-015 1.4655 -1.808 0.9609 -9.21426e-007 1.15165e-006 8.29852e-007 4.9141 -1.269 0.3591 -9.21426e-007 1.15165e-006 8.29852e-007 3.1477 -1.685 0.8462 -1.59028e-014 -3.18055e-015 -9.54166e-015 0.8055 -1.585 0.7955 -9.21426e-007 1.15165e-006 8.29852e-007 -1.7069 20.075 5.0056 11.9903 6.95173 3.17864 -13.6458 -0.047 -4.849 64.1305 -11.9163 36.7143 -28.3255 -0.9759 2.2888 -20.3609 29.3363 5.52194 -22.1583 -0.53 10.8316 49.7794 28.0969 -10.1132 -0.786 0.112 2.5817 -1.97181e-006 -5.81022e-007 -6.79753e-007 -0.3601 -0.878 4.2331 9.06489e-007 1.1764e-006 -8.16989e-007 -1.8127 -1.216 2.2227 0 0 -0 -0.9571 1.114 1.7695 -3.18055e-015 -3.18055e-015 3.18055e-015 -4.1246 0.487 4.1451 -1.97181e-006 -5.81022e-007 -6.79753e-007 -3.4052 -1.454 2.7682 9.06489e-007 1.1764e-006 -8.16989e-007 -1.4531 -1.795 1.2713 3.18055e-015 3.18055e-015 3.18055e-015 -5.6954 0.21 2.1184 -1.97181e-006 -5.81022e-007 -6.79753e-007 -3.9766 -1.54 2.3863 9.06489e-007 1.1764e-006 -8.16989e-007 -1.4042 -1.926 1.125 3.18055e-015 3.18055e-015 3.18055e-015 -2.0956 0.66 -0.3894 -3.18055e-015 -3.18055e-015 3.18055e-015 -5.0395 -0.09 2.4971 -1.97181e-006 -5.81022e-007 -6.79753e-007 -3.7921 -1.552 1.4806 9.06489e-007 1.1764e-006 -8.16989e-007 -1.4655 -1.808 0.9609 3.18055e-015 3.18055e-015 3.18055e-015 -4.9141 -1.269 0.3592 -1.97181e-006 -5.81022e-007 -6.79753e-007 -3.1477 -1.685 0.8462 9.06489e-007 1.1764e-006 -8.16989e-007 -0.8055 -1.585 0.7955 3.18055e-015 3.18055e-015 3.18055e-015 8.367 -8.2066 0.5982 57.0526 -50.6971 126.1 2.1923 -43.463 -0.4932 -1.3835 46.8995 2.22989 0.7333 -45.8593 -2.6451 4.70326 21.0655 7.06825 -8.367 -8.2066 0.5982 -57.0646 -50.6866 -126.132 -2.1923 -43.463 -0.4931 1.3482 46.8902 -2.22597 -0.7333 -45.8593 -2.6451 -4.70765 21.059 -7.06006 
42.3106 6.86298 -3.54259 -0 -25.0011 -0 0 -1.186 -1.5018 -0.0185768 -1.18889 -0.129042 -7.10543e-015 9.964 0.2134 -0.0398455 -2.37777 -0.258554 0 13.134 -3.2573 -0.0398454 -2.37776 -0.258554 7.10543e-015 20.686 -1.6905 10.5725 18.8593 9.54443 0 7.238 -0.1237 2.16114e-006 11.2875 2.25232e-006 1.7069 20.075 5.0056 -11.9077 7.34979 -2.60529 13.6458 -0.047 -4.849 -64.4227 -11.7071 -36.2822 28.3255 -0.9759 2.2888 18.4735 29.5734 -5.48098 22.1583 -0.53 10.8316 -49.771 27.5654 10.4397 0.786 0.112 2.5817 -6.36111e-015 1.27222e-014 -0 0.3601 -0.878 4.2331 -6.36111e-015 6.36111e-015 -1.59028e-015 1.8127 -1.216 2.2227 3.18055e-015 -6.36111e-015 -3.18055e-015 0.9571 1.114 1.7695 -3.18055e-015 1.27222e-014 3.18055e-015 4.1246 0.487 4.1451 -3.17801e-030 1.27222e-014 1.43125e-014 3.4052 -1.454 2.7682 -3.18055e-015 3.18055e-015 -3.18055e-015 1.4531 -1.795 1.2713 -1.27222e-014 0 4.77083e-015 5.6954 0.21 2.1184 -3.17801e-030 1.27222e-014 1.43125e-014 3.9766 -1.54 2.3863 -3.18055e-015 3.18055e-015 -3.18055e-015 1.4042 -1.926 1.125 -1.27222e-014 0 4.77083e-015 2.0956 0.66 -0.3894 -3.18055e-015 1.27222e-014 3.18055e-015 5.0395 -0.09 2.4971 -3.17801e-030 1.27222e-014 1.43125e-014 3.7921 -1.552 1.4806 -3.18055e-015 3.18055e-015 -3.18055e-015 1.4655 -1.808 0.9609 -1.27222e-014 0 4.77083e-015 4.9141 -1.269 0.3591 -3.17801e-030 1.27222e-014 1.43125e-014 3.1477 -1.685 0.8462 -3.18055e-015 3.18055e-015 -3.18055e-015 0.8055 -1.585 0.7955 -1.27222e-014 0 4.77083e-015 -1.7069 20.075 5.0056 12.0505 7.21274 2.94836 -13.6458 -0.047 -4.849 64.1955 -11.8342 36.6892 -28.3255 -0.9759 2.2888 -20.4438 29.2848 5.66275 -22.1583 -0.53 10.8316 49.8795 28.1707 -10.2911 -0.786 0.112 2.5817 3.18055e-015 -3.18055e-015 -0 -0.3601 -0.878 4.2331 -4.53263e-007 -5.88192e-007 4.08495e-007 -1.8127 -1.216 2.2227 -1.27222e-014 0 3.18055e-015 -0.9571 1.114 1.7695 3.18055e-015 -3.18055e-015 3.18055e-015 -4.1246 0.487 4.1451 -6.36111e-015 -1.27222e-014 1.59028e-014 -3.4052 -1.454 2.7682 -4.53263e-007 -5.88192e-007 4.08495e-007 -1.4531 -1.795 1.2713 -3.18055e-015 -3.18055e-015 -0 -5.6954 0.21 2.1184 -6.36111e-015 -1.27222e-014 1.59028e-014 -3.9766 -1.54 2.3863 -4.53263e-007 -5.88192e-007 4.08495e-007 -1.4042 -1.926 1.125 -3.18055e-015 -3.18055e-015 -0 -2.0956 0.66 -0.3894 3.18055e-015 -3.18055e-015 3.18055e-015 -5.0395 -0.09 2.4971 -6.36111e-015 -1.27222e-014 1.59028e-014 -3.7921 -1.552 1.4806 -4.53263e-007 -5.88192e-007 4.08495e-007 -1.4655 -1.808 0.9609 -3.18055e-015 -3.18055e-015 -0 -4.9141 -1.269 0.3592 -6.36111e-015 -1.27222e-014 1.59028e-014 -3.1477 -1.685 0.8462 -4.53263e-007 -5.88192e-007 4.08495e-007 -0.8055 -1.585 0.7955 -3.18055e-015 -3.18055e-015 -0 8.367 -8.2066 0.5982 57.0526 -50.6971 126.1 2.1923 -43.463 -0.4932 -1.38352 46.8995 2.2299 0.7333 -45.8593 -2.6451 4.70327 21.0655 7.06825 -8.367 -8.2066 0.5982 -57.0645 -50.6866 -126.132 -2.1923 -43.463 -0.4931 1.34819 46.8902 -2.22595 -0.7333 -45.8593 -2.6451 -4.70765 21.059 -7.06004 
42.3106 6.86298 -3.509 -0 -25.0011 -0 0 -1.186 -1.5018 -0.0182637 -1.25976 -0.129118 -7.10543e-015 9.964 0.2134 -0.039382 -2.51944 -0.258731 -7.10543e-015 13.134 -3.2573 -0.039382 -2.51945 -0.258732 7.10543e-015 20.686 -1.6905 10.5386 18.3153 9.65139 -1.42109e-014 7.238 -0.1237 1.47965e-006 10.7443 -6.51884e-007 1.7069 20.075 5.0056 -11.9736 7.61612 -2.37908 13.6458 -0.047 -4.849 -64.4867 -11.6268 -36.257 28.3255 -0.9759 2.2888 18.5554 29.5268 -5.62127 22.1583 -0.53 10.8316 -49.8661 27.6296 10.6122 0.786 0.112 2.5817 9.21508e-007 -1.1516e-006 -8.29866e-007 0.3601 -0.878 4.2331 9.21508e-007 -1.1516e-006 -8.29866e-007 1.8127 -1.216 2.2227 -9.21508e-007 1.1516e-006 8.29866e-007 0.9571 1.114 1.7695 -3.53113e-031 6.36111e-015 3.18055e-015 4.1246 0.487 4.1451 9.21508e-007 -1.1516e-006 -8.29866e-007 3.4052 -1.454 2.7682 9.21508e-007 -1.1516e-006 -8.29866e-007 1.4531 -1.795 1.2713 -9.21508e-007 1.1516e-006 8.29866e-007 5.6954 0.21 2.1184 9.21508e-007 -1.1516e-006 -8.29866e-007 3.9766 -1.54 2.3863 9.21508e-007 -1.1516e-006 -8.29866e-007 1.4042 -1.926 1.125 -9.21508e-007 1.1516e-006 8.29866e-007 2.0956 0.66 -0.3894 -3.53113e-031 6.36111e-015 3.18055e-015 5.0395 -0.09 2.4971 9.21508e-007 -1.1516e-006 -8.29866e-007 3.7921 -1.552 1.4806 9.21508e-007 -1.1516e-006 -8.29866e-007 1.4655 -1.808 0.9609 -9.21508e-007 1.1516e-006 8.29866e-007 4.9141 -1.269 0.3591 9.21508e-007 -1.1516e-006 -8.29866e-007 3.1477 -1.685 0.8462 9.21508e-007 -1.1516e-006 -8.29866e-007 0.8055 -1.585 0.7955 -9.21508e-007 1.1516e-006 8.29866e-007 -1.7069 20.075 5.0056 12.1117 7.47357 2.71767 -13.6458 -0.047 -4.849 64.2605 -11.7521 36.664 -28.3255 -0.9759 2.2888 -20.5265 29.2331 5.80339 -22.1583 -0.53 10.8316 49.9798 28.2442 -10.4694 -0.786 0.112 2.5817 -1.81314e-006 -2.35271e-006 1.63399e-006 -0.3601 -0.878 4.2331 -1.81314e-006 -2.35271e-006 1.63399e-006 -1.8127 -1.216 2.2227 -1.81314e-006 -2.35271e-006 1.63399e-006 -0.9571 1.114 1.7695 6.36111e-015 0 -3.18055e-015 -4.1246 0.487 4.1451 -1.81314e-006 -2.35271e-006 1.63399e-006 -3.4052 -1.454 2.7682 -1.81314e-006 -2.35271e-006 1.63399e-006 -1.4531 -1.795 1.2713 -1.81314e-006 -2.35271e-006 1.63399e-006 -5.6954 0.21 2.1184 -1.81314e-006 -2.35271e-006 1.63399e-006 -3.9766 -1.54 2.3863 -1.81314e-006 -2.35271e-006 1.63399e-006 -1.4042 -1.926 1.125 -1.81314e-006 -2.35271e-006 1.63399e-006 -2.0956 0.66 -0.3894 6.36111e-015 0 -3.18055e-015 -5.0395 -0.09 2.4971 -1.81314e-006 -2.35271e-006 1.63399e-006 -3.7921 -1.552 1.4806 -1.81314e-006 -2.35271e-006 1.63399e-006 -1.4655 -1.808 0.9609 -1.81314e-006 -2.35271e-006 1.63399e-006 -4.9141 -1.269 0.3592 -1.81314e-006 -2.35271e-006 1.63399e-006 -3.1477 -1.685 0.8462 -1.81314e-006 -2.35271e-006 1.63399e-006 -0.8055 -1.585 0.7955 -1.81314e-006 -2.35271e-006 1.63399e-006 8.367 -8.2066 0.5982 57.0526 -50.6971 126.1 2.1923 -43.463 -0.4932 -1.38351 46.8995 2.22989 0.7333 -45.8593 -2.6451 4.70328 21.0655 7.06826 -8.367 -8.2066 0.5982 -57.0645 -50.6866 -126.132 -2.1923 -43.463 -0.4931 1.34819 46.8901 -2.22595 -0.7333 -45.8593 -2.6451 -4.70763 21.059 -7.06006 
